<?xml version="1.0" encoding="UTF-8"?>
<svg version="1.1" xmlns="http://www.w3.org/2000/svg" width="4096" height="1080">
<path d="M0 0 C0.73914272 -0.00115384 1.47828543 -0.00230769 2.23982641 -0.0034965 C4.71206713 -0.00613953 7.18424248 -0.00166012 9.65647984 0.00279331 C11.44855994 0.00235714 13.24063997 0.00148138 15.03271967 0.00020415 C19.95379384 -0.00203172 24.87484624 0.00196808 29.79591763 0.00698221 C35.10395597 0.01129953 40.41199309 0.00983937 45.72003269 0.00907993 C54.91545433 0.00855551 64.11086887 0.01169378 73.30628872 0.01731777 C86.60133305 0.02544384 99.89637396 0.02804913 113.1914205 0.02930576 C134.76160844 0.03149454 156.3317926 0.03814991 177.90197849 0.04760838 C198.85575434 0.05678699 219.80952916 0.06386563 240.76330662 0.06811619 C242.70060165 0.06851027 242.70060165 0.06851027 244.67703395 0.06891232 C251.15624236 0.07021735 257.63545077 0.07148106 264.11465919 0.07272422 C317.86855739 0.08309141 371.6224486 0.1015268 425.37634373 0.12304783 C425.37634373 33.12304783 425.37634373 66.12304783 425.37634373 100.12304783 C406.60537815 100.13706638 406.60537815 100.13706638 387.45520115 100.15136814 C347.41424541 100.1840766 307.37333665 100.23636291 267.33242018 100.30096878 C261.11276798 100.31098623 254.89311551 100.32083036 248.67346287 100.33056736 C247.43524315 100.33250873 246.19702344 100.33445011 244.92128191 100.33645031 C224.87278401 100.36747054 204.82429755 100.38445103 184.77578016 100.39624205 C164.20381863 100.40865347 143.63191717 100.43615473 123.05999357 100.47766089 C110.36624322 100.50279645 97.67259249 100.51616506 84.9788169 100.5144774 C76.27396277 100.51444764 67.56921011 100.52907663 58.86439552 100.55521211 C53.84233353 100.56985819 48.82047964 100.57806078 43.79839993 100.56885052 C39.19689622 100.56055445 34.59581038 100.57074365 29.99436859 100.59538445 C28.33335863 100.60106111 26.67230897 100.60006342 25.01131108 100.59156027 C10.81045682 100.52511429 -0.84181086 103.05418393 -11.59631252 112.93554783 C-16.18090521 117.76348408 -18.54996093 122.84621731 -20.62365627 129.12304783 C-20.95365627 130.11304783 -21.28365627 131.10304783 -21.62365627 132.12304783 C-21.71813398 133.82158242 -21.75456803 135.523606 -21.75787735 137.22476292 C-21.76456412 138.81720058 -21.76456412 138.81720058 -21.77138597 140.4418087 C-21.77120161 141.61230609 -21.77101724 142.78280348 -21.77082729 143.98877048 C-21.77450398 145.22905601 -21.77818067 146.46934153 -21.78196877 147.74721146 C-21.79109895 151.19668999 -21.79570605 154.64612094 -21.79835808 158.09560704 C-21.80226039 161.81359837 -21.81183894 165.53157592 -21.82057095 169.24955845 C-21.84033987 178.23323479 -21.85040318 187.21691226 -21.85929874 196.20060492 C-21.86368188 200.43202666 -21.86904871 204.66344715 -21.87428761 208.8948679 C-21.8913021 222.96347386 -21.90579516 237.03207903 -21.91303635 251.1006937 C-21.91494623 254.75218806 -21.91686656 258.4036824 -21.91882229 262.05517673 C-21.9195479 263.41651011 -21.9195479 263.41651011 -21.92028817 264.80534518 C-21.92858425 279.49941016 -21.95391304 294.19339363 -21.98640297 308.88742304 C-22.01949428 323.97662835 -22.03748708 339.06579228 -22.04068059 354.15503407 C-22.04284402 362.62572628 -22.05156795 371.0962997 -22.07714176 379.56695652 C-22.09887729 386.78296342 -22.10688528 393.99882267 -22.09717498 401.21485859 C-22.09263818 404.89424177 -22.09447981 408.57332052 -22.11393642 412.25266171 C-22.13488668 416.24913925 -22.1245573 420.24494528 -22.11140347 424.24145603 C-22.12237271 425.39410765 -22.13334196 426.54675926 -22.1446436 427.73433971 C-22.06601804 437.65302306 -19.6994388 446.14858327 -13.62365627 454.12304783 C-13.06678127 454.94804783 -12.50990627 455.77304783 -11.93615627 456.62304783 C-4.28676451 464.89266055 5.40309885 468.16662811 16.37634373 469.12304783 C20.40576273 469.26490233 24.43209315 469.26234987 28.46370029 469.2567606 C29.66742242 469.25902615 30.87114454 469.26129171 32.11134309 469.26362592 C35.4355138 469.26884473 38.75963023 469.26961362 42.08380115 469.26843154 C45.67559211 469.26822683 49.26737511 469.27375296 52.85916233 469.27848911 C59.88962786 469.28678083 66.920085 469.28954328 73.950555 469.29010149 C79.66728119 469.29057732 85.38400463 469.29263543 91.10072994 469.29580212 C107.32231474 469.30460442 123.54389293 469.30922212 139.76548014 469.30847164 C140.63923065 469.30843169 141.51298116 469.30839173 142.41320896 469.30835056 C143.28803089 469.30830968 144.16285282 469.3082688 145.06418451 469.30822668 C159.24058189 469.30782026 173.4169527 469.31738984 187.5933424 469.33148893 C202.16290056 469.34586428 216.73244577 469.35275848 231.30201119 469.35189515 C239.47636487 469.3515636 247.65069068 469.35429249 255.82503796 469.3650732 C262.78471186 469.37419343 269.74434527 469.37634094 276.70402256 469.36956378 C280.25171106 469.36630634 283.79932194 469.36621373 287.34700298 469.37491703 C291.20071634 469.38427351 295.0543173 469.37798581 298.90803623 469.37028599 C300.01836777 469.37542955 301.1286993 469.38057311 302.27267724 469.38587254 C315.65358874 469.32696208 327.90240164 466.98008633 338.37634373 458.12304783 C346.81284081 448.65949892 350.45067083 438.86688317 350.53747654 426.24804783 C350.55188786 424.54467258 350.55188786 424.54467258 350.56659031 422.80688572 C350.57084019 421.59121922 350.57509007 420.37555271 350.57946873 419.12304783 C350.5851688 417.85517429 350.59086887 416.58730076 350.59674168 415.28100681 C350.60617747 412.59794634 350.61308096 409.91499726 350.6165781 407.23193455 C350.62202719 403.83442759 350.64599184 400.4373286 350.67455006 397.03994846 C350.69794685 393.75518044 350.69964479 390.47038738 350.70446873 387.18554783 C350.72298893 385.38633884 350.72298893 385.38633884 350.74188328 383.5507822 C350.70525685 369.38397373 348.51951297 357.98053399 338.87634373 347.37304783 C337.63884373 346.25929783 337.63884373 346.25929783 336.37634373 345.12304783 C335.42759373 344.25679783 334.47884373 343.39054783 333.50134373 342.49804783 C325.32783046 336.28617775 316.51154779 334.82316389 306.57508945 334.84457493 C305.60539012 334.83878253 304.63569079 334.83299012 303.63660663 334.82702219 C300.39690493 334.81005689 297.15734598 334.80714865 293.91760349 334.80420017 C291.59147386 334.79489962 289.26534755 334.78473075 286.9392252 334.77375889 C280.62993065 334.7464593 274.32065843 334.73130952 268.01132035 334.71833086 C262.08398862 334.70428418 256.15669822 334.68114976 250.22939586 334.65806051 C238.49234582 334.61263529 226.75528557 334.57600287 215.01818943 334.54492283 C203.61940817 334.51471977 192.22065188 334.48036145 180.82190037 334.44043064 C180.11880848 334.43796909 179.41571658 334.43550754 178.69131888 334.4329714 C175.16397226 334.42059646 171.63662594 334.40813999 168.10927975 334.395643 C138.86500068 334.29213916 109.62069342 334.20453886 80.37634373 334.12304783 C80.37634373 301.12304783 80.37634373 268.12304783 80.37634373 234.12304783 C112.30066291 234.05679224 144.22491484 234.00144581 176.14928218 233.96985184 C179.92646688 233.96610015 183.70365143 233.96221714 187.48083591 233.95825291 C188.23273986 233.95746598 188.98464381 233.95667904 189.75933273 233.95586827 C201.90103185 233.94284849 214.04268794 233.91921375 226.18436162 233.89158944 C238.66204278 233.86343946 251.13970156 233.84685139 263.61741316 233.84078234 C271.30399312 233.83668569 278.9904514 233.82379259 286.67699386 233.79929843 C292.59162042 233.78142183 298.50618605 233.77970621 304.42084026 233.78372478 C306.83212306 233.78290534 309.24341084 233.77701739 311.65466595 233.7654314 C351.48308088 233.58358522 385.149528 244.90420446 414.37634373 272.74804783 C442.5115132 301.64121712 451.70978267 337.92937816 451.67712498 377.16992283 C451.68102738 379.15798116 451.68536512 381.14603869 451.69011021 383.13409519 C451.69751367 387.27562267 451.69732454 391.41706482 451.69201756 395.5585947 C451.68623465 400.80358886 451.70315468 406.04822853 451.72636223 411.29316425 C451.74126505 415.39274143 451.74194902 419.4922365 451.7388525 423.59183598 C451.73935757 425.52266484 451.74443747 427.45349934 451.75466442 429.38430119 C451.84393458 448.59060372 450.01706451 467.01018367 443.37634373 485.12304783 C442.82333591 486.65252048 442.82333591 486.65252048 442.25915623 488.21289158 C437.08810297 501.49714907 429.87050701 513.50436437 420.37634373 524.12304783 C419.58357029 525.04730564 418.79079685 525.97156345 417.97399998 526.92382908 C401.44941337 545.79788297 379.37285861 558.99211399 355.37634373 565.99804783 C354.41933567 566.2849448 354.41933567 566.2849448 353.44299412 566.57763767 C335.72117443 571.3313771 316.90988717 570.41540898 298.73638177 570.38449717 C294.74857978 570.37992254 290.76079448 570.38698095 286.77299595 570.39245701 C278.98487861 570.40129982 271.19680006 570.39945197 263.40868127 570.39363173 C257.07297314 570.38909497 250.7372758 570.38851099 244.40156651 570.39067936 C243.49610849 570.39098583 242.59065047 570.39129229 241.65775433 570.39160804 C239.81771211 570.39224756 237.97766988 570.39289599 236.13762766 570.39355323 C218.92735659 570.39924154 201.7171069 570.39272223 184.50683933 570.38195249 C169.77436526 570.37301835 155.04192271 570.37457082 140.3094492 570.38379002 C123.15619848 570.39451921 106.00296645 570.39869236 88.84971285 570.39256549 C87.01684888 570.39192846 85.18398492 570.39129972 83.35112095 570.39067936 C82.44957127 570.39037081 81.54802159 570.39006226 80.61915222 570.38974436 C74.29901976 570.38802535 67.97889926 570.39091529 61.65876865 570.39563847 C53.94525391 570.40127684 46.23177981 570.39966919 38.51826966 570.38907698 C34.59092514 570.38385976 30.66364813 570.38169516 26.73630428 570.38837528 C-14.65790406 570.4527798 -51.95390618 564.37266436 -82.62365627 534.12304783 C-83.50021877 533.31867283 -84.37678127 532.51429783 -85.27990627 531.68554783 C-99.76951089 518.00996594 -110.5759243 499.86866265 -116.99865627 481.06054783 C-117.22528957 480.40199802 -117.45192287 479.74344822 -117.68542385 479.06494236 C-121.6150976 466.71876166 -123.0724135 454.26094711 -123.01133633 441.3499155 C-123.01552337 439.93967447 -123.02100829 438.52943682 -123.02765614 437.11920524 C-123.04195036 433.29455985 -123.03791702 429.47013287 -123.03048933 425.64547634 C-123.02571963 421.50080382 -123.03830086 417.35617602 -123.04850674 413.21151829 C-123.06562693 405.11095841 -123.06654881 397.01047634 -123.06129383 388.90990308 C-123.05723777 382.3191061 -123.05871267 375.72833195 -123.06404209 369.13753605 C-123.06479051 368.1963048 -123.06553894 367.25507355 -123.06631004 366.28532015 C-123.06784166 364.37264531 -123.06938001 362.45997048 -123.070925 360.54729566 C-123.08462583 342.64499443 -123.07922967 324.742737 -123.06773979 306.84043679 C-123.05781263 290.50107628 -123.07074347 274.1618291 -123.09467398 257.82248607 C-123.11912043 241.00276664 -123.1286591 224.18309986 -123.12202126 207.36336303 C-123.11854099 197.93741195 -123.12068171 188.51154793 -123.13827229 179.08561039 C-123.15306396 171.06062179 -123.15353956 163.03578153 -123.13620137 155.01079562 C-123.12774541 150.92517626 -123.1254075 146.83982111 -123.14085293 142.75421619 C-123.28802918 100.76616768 -113.12454734 65.7827703 -82.78381252 35.21289158 C-61.23533753 14.26956747 -30.17945671 -0.00872996 0 0 Z " fill="#000000" transform="translate(199.62365627288818,241.87695217132568)"/>
<path d="M0 0 C58.0571248 -0.06616564 116.11421752 -0.12155298 174.17136919 -0.15319599 C181.02920388 -0.1569378 187.88703848 -0.16082749 194.74487305 -0.16479492 C195.4272881 -0.1651872 196.10970315 -0.16557948 196.81279744 -0.16598364 C218.90781226 -0.17875391 241.00280398 -0.20127753 263.09780482 -0.22889166 C286.45967047 -0.25803589 309.82151686 -0.27599728 333.18340212 -0.28226548 C347.17000767 -0.28637698 361.15654686 -0.29935192 375.14313198 -0.3237494 C384.74084231 -0.33963595 394.33851845 -0.34439374 403.93624096 -0.34050413 C409.46939555 -0.33858714 415.00243436 -0.34147717 420.53556824 -0.35761642 C425.61099543 -0.3723118 430.68622994 -0.37289035 435.76166636 -0.36269668 C437.58834018 -0.36143849 439.41502647 -0.36516188 441.24167608 -0.37464955 C469.80203747 -0.51424915 496.80441648 6.91562553 520 24 C520.81339844 24.59039062 521.62679687 25.18078125 522.46484375 25.7890625 C551.19093676 47.67117549 568.70891466 79.29294329 573.52515793 114.88041973 C574.19707188 121.07181586 574.14477473 127.25439901 574.14044189 133.4757843 C574.14302996 134.83048292 574.14604434 136.18518077 574.1494453 137.53987759 C574.15746708 141.24345441 574.15930216 144.94701179 574.16004276 148.65059626 C574.16190184 152.65290822 574.16945354 156.65521029 574.17617798 160.65751648 C574.18972878 169.40184781 574.19578129 178.14617453 574.20018864 186.89051461 C574.20295728 192.35873972 574.20719582 197.82696308 574.21169281 203.295187 C574.22388257 218.45776031 574.23418159 233.62033224 574.2375679 248.78291035 C574.23778747 249.75237473 574.23800703 250.72183911 574.23823325 251.7206812 C574.23845153 252.69237195 574.23866981 253.6640627 574.2388947 254.66519862 C574.23933816 256.63397682 574.23978472 258.60275501 574.24023438 260.5715332 C574.2404558 261.54810036 574.24067723 262.52466751 574.24090537 263.5308276 C574.24484844 279.3338892 574.26228875 295.13690455 574.2855939 310.9399483 C574.30936969 327.19443 574.32177262 343.44888856 574.32293582 359.70338792 C574.32384923 368.81756148 574.32951664 377.93167481 574.34775543 387.04583168 C574.36324091 394.81111734 574.3682276 402.57632415 574.36001733 410.34162233 C574.35614012 414.29551728 574.3568948 418.24925388 574.37107468 422.20312881 C574.50597479 462.11960143 574.50597479 462.11960143 567.875 480.6875 C567.5756958 481.54996338 567.2763916 482.41242676 566.96801758 483.30102539 C554.84525799 516.92102472 529.4766075 543.64112506 497.3125 558.875 C476.51304648 568.34601075 455.06375368 570.15945322 432.55549622 570.12025452 C430.69021592 570.12069249 428.82493568 570.12157041 426.95965576 570.12284851 C421.84451521 570.12508438 416.72939571 570.12108771 411.61425783 570.11607273 C406.00955816 570.11169786 400.40485941 570.11316788 394.8001585 570.11389065 C383.92647945 570.11442176 373.05280868 570.10980976 362.17913176 570.10338932 C349.59838358 570.0961836 337.01764035 570.09539425 324.43688965 570.09460449 C291.22875846 570.08935617 258.0206291 570.07539503 224.8125 570.0625 C150.624375 570.041875 76.43625 570.02125 0 570 C0 416.22 0 262.44 0 104 C33 104 66 104 100 104 C100 224.78 100 345.56 100 470 C154.883125 469.87625 209.76625 469.7525 266.3125 469.625 C292.31800659 469.57400146 292.31800659 469.57400146 318.84887695 469.52197266 C334.37374469 469.48206926 334.37374469 469.48206926 349.89860535 469.43954468 C356.81978758 469.42065704 363.7409547 469.40715103 370.66215515 469.39730835 C378.6466482 469.38593497 386.63109078 469.3677103 394.61554803 469.34107121 C398.69881462 469.32766225 402.78202339 469.31729732 406.86531317 469.31574559 C410.56228422 469.31428175 414.25911379 469.30363558 417.95604134 469.28585625 C419.91640691 469.27876539 421.87680022 469.28134371 423.83717632 469.284338 C437.81768508 469.19630567 449.88802724 467.00758146 461 458 C471.39919437 447.33520735 473.15344601 435.46118924 473.13371277 421.15315247 C473.13597833 419.95113919 473.13824388 418.74912592 473.14057809 417.51068801 C473.14580827 414.18199867 473.14656383 410.85336341 473.14538372 407.52467382 C473.14517942 403.93148435 473.15070129 400.33830291 473.15544128 396.74511719 C473.16374261 389.70769323 473.16649591 382.67027764 473.16705366 375.63284919 C473.16752914 369.91035434 473.16958551 364.18786225 473.17275429 358.46536827 C473.18156007 342.23196717 473.18617388 325.99857268 473.18542381 309.76516918 C473.18538386 308.89028786 473.1853439 308.01540654 473.18530273 307.11401367 C473.18526185 306.23806074 473.18522097 305.3621078 473.18517885 304.45961084 C473.18477258 290.27015326 473.19433752 276.08072224 473.2084411 261.89127234 C473.22281674 247.31273741 473.22971061 232.73421541 473.22884732 218.15567321 C473.22851573 209.97458283 473.2312464 201.79352028 473.24202538 193.61243629 C473.25114609 186.64539437 473.2532928 179.67839288 473.24651595 172.71134756 C473.24325844 169.15962246 473.2431661 165.60797489 473.2518692 162.05625725 C473.26122566 158.19805785 473.25493795 154.33997071 473.24723816 150.48176575 C473.2549535 148.81422209 473.2549535 148.81422209 473.26282471 147.11299068 C473.22300154 138.05688126 472.72653399 128.97514209 468.0625 121 C467.30646484 119.6696875 467.30646484 119.6696875 466.53515625 118.3125 C465.10725504 115.99497813 465.10725504 115.99497813 463.30859375 114.3125 C462 113 462 113 462 111 C461.42765625 110.72027344 460.8553125 110.44054687 460.265625 110.15234375 C457.31453481 108.65135822 454.47023106 106.98175859 451.609375 105.31640625 C445.37811682 102.17279247 440.1143559 100.55136591 433.12835693 100.61523914 C432.37455338 100.61008924 431.62074983 100.60493933 430.84410375 100.59963337 C428.32786636 100.58605892 425.81215427 100.59368714 423.29589844 100.60127258 C421.4699528 100.59583124 419.64401067 100.58907889 417.81807423 100.58113068 C412.80801385 100.56310813 407.79810172 100.56366212 402.78801656 100.56726015 C397.38249266 100.56788393 391.97701853 100.55126454 386.57151794 100.53674316 C377.20859407 100.51394877 367.84570743 100.50207059 358.48275757 100.49761391 C344.94552544 100.49115451 331.40836063 100.46822078 317.87115562 100.44127061 C295.90776556 100.39799261 273.94437833 100.36803163 251.98095703 100.34643555 C230.64598026 100.3254289 209.31103146 100.29815654 187.97607422 100.26245117 C186.66091096 100.26025235 185.34574769 100.25805352 183.990731 100.25578807 C177.39292048 100.24471849 170.79511017 100.23352567 164.19729996 100.22227156 C109.46488063 100.12907209 54.73246785 100.05993234 0 100 C0 67 0 34 0 0 Z " fill="#000000" transform="translate(3457,242)"/>
<path d="M0 0 C75.384375 -0.061875 150.76875 -0.12375 228.4375 -0.1875 C252.24575928 -0.21481201 276.05401855 -0.24212402 300.58374023 -0.27026367 C329.6427002 -0.28381348 329.6427002 -0.28381348 343.24378967 -0.28633118 C352.74889859 -0.2891276 362.25395455 -0.30012719 371.75904846 -0.31672668 C382.72678182 -0.33585211 393.69446443 -0.34450093 404.66221458 -0.34033485 C410.27005651 -0.33853123 415.87778505 -0.34134769 421.48560607 -0.35764539 C426.56509221 -0.37231744 431.6443855 -0.37292292 436.72388077 -0.36270332 C438.55192705 -0.36143977 440.37998578 -0.3651694 442.20800793 -0.37464774 C465.98907006 -0.49061976 487.1057179 4.58219829 508 16 C509.37091797 16.74056641 509.37091797 16.74056641 510.76953125 17.49609375 C539.22934786 33.72600532 560.51610215 61.76491939 570 93 C574.60096033 110.34182273 575.15202641 127.67393712 575.12025452 145.5015564 C575.12069138 147.34092588 575.12156842 149.18029531 575.12284368 151.01966441 C575.12506594 156.03893876 575.12109864 161.05819154 575.11606562 166.07746315 C575.11172852 171.5033073 575.11320985 176.92915033 575.1139679 182.35499573 C575.11449107 191.74400493 575.11136586 201.13300717 575.10573006 210.52201462 C575.09758705 224.09677786 575.09499697 237.67153774 575.09374207 251.24630316 C575.09155595 273.27292797 575.08490779 295.29954907 575.07543945 317.32617188 C575.06625396 338.71712223 575.05916714 360.10807151 575.05493164 381.49902344 C575.05466892 382.81858435 575.05440619 384.13814526 575.05413551 385.49769287 C575.05283043 392.11784755 575.05156673 398.73800223 575.05032361 405.35815692 C575.03996469 460.23877458 575.02153376 515.11938537 575 570 C542 570 509 570 475 570 C474.98018066 557.03686523 474.96036133 544.07373047 474.93994141 530.71777344 C474.8751283 489.23663472 474.80059538 447.75551856 474.71994839 406.27440773 C474.70742958 399.83072509 474.69499679 393.38704228 474.68261719 386.94335938 C474.6789182 385.01913443 474.6789182 385.01913443 474.67514448 383.05603626 C474.6354251 362.28720063 474.60267412 341.51835956 474.57250018 320.74950811 C474.5413818 299.43739996 474.50277071 278.12531488 474.45720994 256.81323266 C474.4293345 243.66347603 474.40729733 230.51373626 474.39273749 217.36395803 C474.38219216 208.3456217 474.36436622 199.32731802 474.34083296 190.3090063 C474.32747181 185.10662593 474.3173036 179.90429131 474.31578636 174.70189285 C474.314325 169.9345275 474.30367542 165.16727226 474.28586559 160.39994076 C474.28103458 158.67969104 474.27951109 156.95942799 474.28172119 155.23917291 C474.29914723 139.00473993 473.62635078 124.28764889 462.01171875 111.81640625 C451.64702792 102.45799608 440.49072064 100.55086542 426.97203064 100.60127258 C425.5611009 100.59583233 424.15017571 100.58908363 422.73925781 100.58114624 C418.87320747 100.56316544 415.00734951 100.56370038 411.14126723 100.56728305 C406.90403356 100.56787403 402.66686166 100.55106879 398.42965794 100.53649426 C390.21048347 100.51081232 381.99136105 100.50041834 373.77215082 100.49541168 C364.2618314 100.48895583 354.75162593 100.46340755 345.24133301 100.43786621 C320.14008758 100.37985964 295.03878768 100.34776375 269.9375 100.3125 C213.858125 100.209375 157.77875 100.10625 100 100 C100 255.1 100 410.2 100 570 C67 570 34 570 0 570 C0 381.9 0 193.8 0 0 Z " fill="#000000" transform="translate(2790,242)"/>
<path d="M0 0 C33 0 66 0 100 0 C100.01458252 13.05401367 100.02916504 26.10802734 100.04418945 39.55761719 C100.09295084 81.32914737 100.15636105 123.10064384 100.22898628 164.87213908 C100.2402544 171.3608855 100.25139286 177.84963213 100.26245117 184.33837891 C100.26465486 185.63016738 100.26685854 186.92195585 100.269129 188.25288942 C100.30449794 209.16722273 100.32936436 230.08155599 100.35034702 250.99590811 C100.37211226 272.4571855 100.4051696 293.91842409 100.44870156 315.37966847 C100.47520574 328.62156279 100.49291022 341.86340876 100.49934604 355.10532829 C100.50460367 364.18675102 100.52083333 373.26811294 100.54566566 382.34950307 C100.55966767 387.58835867 100.56885627 392.82710543 100.56500816 398.06598091 C100.56158887 402.86669912 100.572015 407.66718516 100.59323552 412.46785584 C100.59848806 414.20021681 100.59875452 415.93260198 100.59339563 417.66496262 C100.55327033 432.11326135 101.49086223 445.98930736 111.921875 457.03515625 C123.74968246 467.83146887 136.68102464 469.15507156 152.08735657 469.13371277 C153.29107869 469.13597833 154.49480081 469.13824388 155.73499936 469.14057809 C159.05917007 469.1457969 162.3832865 469.14656579 165.70745742 469.14538372 C169.29924839 469.14517901 172.89103139 469.15070514 176.4828186 469.15544128 C183.51328413 469.163733 190.54374127 469.16649545 197.57421128 469.16705366 C203.29093747 469.1675295 209.0076609 469.1695876 214.72438622 469.17275429 C230.94597101 469.18155659 247.16754921 469.18617429 263.38913641 469.18542381 C264.26288692 469.18538386 265.13663743 469.1853439 266.03686523 469.18530273 C266.91168717 469.18526185 267.7865091 469.18522097 268.68784078 469.18517885 C282.86423816 469.18477244 297.04060898 469.19434202 311.21699867 469.2084411 C325.78655683 469.22281645 340.35610204 469.22971066 354.92566746 469.22884732 C363.10002114 469.22851577 371.27434696 469.23124466 379.44869423 469.24202538 C386.40836813 469.2511456 393.36800154 469.25329311 400.32767884 469.24651595 C403.87536733 469.24325851 407.42297822 469.2431659 410.97065926 469.2518692 C414.82437261 469.26122568 418.67797358 469.25493798 422.5316925 469.24723816 C423.64202404 469.25238172 424.75235557 469.25752529 425.89633352 469.26282471 C441.04920651 469.19611306 452.59763139 466.03484856 463.80078125 455.46484375 C470.52799797 447.92510352 473.31515935 438.30367203 473.26171303 428.32949162 C473.26770712 427.21317986 473.26770712 427.21317986 473.27382231 426.07431635 C473.28477641 423.58480038 473.28159816 421.09550742 473.2784729 418.60597229 C473.2834769 416.8015154 473.289353 414.99706075 473.29602563 413.19260925 C473.31182699 408.23732703 473.3152564 403.2821015 473.31667423 398.32679713 C473.32036803 392.98193219 473.33552342 387.63709836 473.34928894 382.29225159 C473.37156621 373.03299345 473.3865767 363.77374638 473.39665604 354.51446724 C473.41123957 341.12709566 473.43677551 327.73976262 473.46498732 314.35241365 C473.51046121 292.63249495 473.54707356 270.91257071 473.578125 249.19262695 C473.60830809 228.09333319 473.64265727 206.994053 473.68261719 185.89477539 C473.68507874 184.59428438 473.68754028 183.29379338 473.69007643 181.95389355 C473.70245098 175.42973279 473.71490752 168.90557219 473.72740483 162.38141167 C473.83098157 108.25429048 473.91855151 54.1271599 474 0 C507 0 540 0 574 0 C574.0661665 57.54754927 574.12155351 115.09506368 574.15319599 172.64264011 C574.1569378 179.4403897 574.16082749 186.23813921 574.16479492 193.03588867 C574.1651872 193.71232435 574.16557948 194.38876003 574.16598364 195.08569376 C574.17875367 216.98670145 574.20127711 238.88768584 574.22889166 260.78867942 C574.2580366 283.945629 574.27599744 307.10256472 574.28226548 330.25953394 C574.28637684 344.12330189 574.299351 357.98700288 574.3237494 371.85075022 C574.3396368 381.36436148 574.34439355 390.87793824 574.34050413 400.3915618 C574.33858727 405.8761104 574.34147564 411.36054218 574.35761642 416.84506989 C574.37231368 421.87608746 574.37288916 426.90691067 574.36269668 431.93793757 C574.36143867 433.74846079 574.36516045 435.55899659 574.37464955 437.36949538 C574.55545151 474.02734945 561.10675558 506.57833524 535.5 532.9375 C510.64287289 557.75448641 476.95777183 570.04130856 442.18214989 570.1384055 C440.94343447 570.1368569 439.70471905 570.1353083 438.4284668 570.13371277 C437.07560475 570.13558431 435.72274325 570.13788637 434.36988258 570.14057809 C430.67610309 570.14666039 426.98234636 570.14656673 423.28856301 570.14538372 C419.2951703 570.14517879 415.30178473 570.15070725 411.30839539 570.15544128 C403.49245556 570.16372941 395.67652328 570.16649532 387.86057943 570.16705366 C381.50179878 570.16752981 375.14302059 570.16958951 368.78424072 570.17275429 C350.72845604 570.18155682 332.67267728 570.18617444 314.61689043 570.18542381 C313.15838269 570.18536388 313.15838269 570.18536388 311.67041016 570.18530273 C310.6968745 570.18526185 309.72333884 570.18522097 308.7203021 570.18517885 C292.95799646 570.18477278 277.19571474 570.19433373 261.43341601 570.2084411 C245.22185291 570.22283521 229.01030145 570.22970958 212.7987318 570.22884732 C203.70812659 570.22851634 194.61754645 570.23121981 185.52694702 570.24202538 C177.78396407 570.25117053 170.04101755 570.25327297 162.29803151 570.24651595 C158.35453768 570.24327054 154.41111359 570.24312158 150.46762657 570.2518692 C112.0877839 570.33149752 75.66717219 565.76701593 46 539 C45.175 538.30519531 44.35 537.61039063 43.5 536.89453125 C18.74238209 515.65713714 2.97689145 484.39814395 0 452 C-0.34077979 445.72544499 -0.26244145 439.43818004 -0.24050903 433.1567688 C-0.24138271 431.28027567 -0.24313667 429.40378278 -0.24568737 427.52729118 C-0.250133 422.40537899 -0.24219576 417.28355137 -0.23213124 412.16164994 C-0.22345867 406.62537543 -0.22641959 401.08910532 -0.22793579 395.55282593 C-0.22898224 385.97227991 -0.22273076 376.39176122 -0.21146011 366.81122208 C-0.19517549 352.95953588 -0.18999408 339.10786284 -0.18748413 325.25616811 C-0.18311167 302.78030884 -0.16983202 280.30446391 -0.15087891 257.82861328 C-0.13249387 236.00114009 -0.11833457 214.1736708 -0.10986328 192.34619141 C-0.10960023 191.6727195 -0.10933718 190.99924759 -0.10906615 190.30536745 C-0.10642899 183.54174539 -0.10387738 176.7781233 -0.10138843 170.01450118 C-0.08052589 113.34298765 -0.04358263 56.67150152 0 0 Z " fill="#000000" transform="translate(2120,242)"/>
<path d="M0 0 C189.42 0 378.84 0 574 0 C574 33 574 66 574 100 C495.79 100 417.58 100 337 100 C337 255.1 337 410.2 337 570 C304 570 271 570 237 570 C237 414.9 237 259.8 237 100 C158.79 100 80.58 100 0 100 C0 67 0 34 0 0 Z " fill="#000000" transform="translate(878,242)"/>
<path d="M0 0 C0.78419428 -0.00115384 1.56838855 -0.00230769 2.37634629 -0.0034965 C4.99581768 -0.00613676 7.61522722 -0.00166244 10.23469543 0.00279331 C12.13488339 0.00235708 14.03507129 0.00148122 15.93525887 0.00020415 C21.15051414 -0.0020306 26.36574886 0.00196655 31.58100152 0.00698221 C37.207362 0.01130114 42.83372133 0.00983926 48.46008301 0.00907993 C58.20606257 0.00855562 67.95203543 0.01169282 77.69801331 0.01731777 C91.78905796 0.02544522 105.88009937 0.02804927 119.97114611 0.02930576 C142.8330052 0.03149432 165.69485992 0.03814051 188.55671692 0.04760838 C210.76472454 0.05679483 232.97273121 0.06387746 255.18074036 0.06811619 C255.86545981 0.06824771 256.55017926 0.06837924 257.25564779 0.06851475 C264.13197139 0.06983329 271.008295 0.0711091 277.88461861 0.07235361 C335.53882961 0.08279216 393.19303682 0.10043613 450.84724426 0.12304783 C450.87036537 13.01377038 450.88815816 25.90448803 450.89905643 38.79522705 C450.90428577 44.78024049 450.91138434 50.76523979 450.92268372 56.75024509 C450.93351079 62.52088212 450.93952071 68.29150551 450.94212151 74.06215191 C450.94397608 76.26907726 450.9475973 78.47600183 450.95297432 80.68292141 C450.96018236 83.76250824 450.9612353 86.84203797 450.96076965 89.92163181 C450.96436493 90.84375965 450.96796021 91.76588749 450.97166443 92.7159586 C450.96129642 99.00899567 450.96129642 99.00899567 449.84724426 100.12304783 C447.51108775 100.22320075 445.20441432 100.25775257 442.86766243 100.25053978 C442.12523135 100.25218361 441.38280027 100.25382744 440.61787128 100.25552109 C438.09821073 100.25987667 435.57860689 100.25704846 433.0589447 100.25434971 C431.24688384 100.25605014 429.43482336 100.25819904 427.62276351 100.26076096 C423.66634559 100.26537422 419.70994334 100.26677568 415.75352287 100.26579571 C409.31722265 100.2642085 402.88093808 100.26939316 396.44464111 100.2754221 C387.09853749 100.2835493 377.75243661 100.28848389 368.40633011 100.29171276 C353.63384599 100.29720116 338.86138508 100.3140911 324.08891296 100.33305454 C319.03812603 100.33941198 313.98733904 100.34572034 308.93655205 100.35203171 C307.67412626 100.35361547 306.41170047 100.35519923 305.11101935 100.35683099 C290.72752308 100.37478213 276.34402515 100.3910005 261.96052551 100.40600681 C260.64511531 100.40738268 259.32970512 100.40875856 257.974434 100.41017612 C236.67149071 100.43209254 215.36855805 100.44285838 194.06560458 100.45037756 C172.20540323 100.45844917 150.34525285 100.48174323 128.4850806 100.51833123 C114.99665199 100.54036048 101.50832818 100.55001954 88.01988249 100.54383089 C78.77167205 100.54065579 69.52355105 100.55198991 60.27536829 100.57472531 C54.93938264 100.58739118 49.60359625 100.59356522 44.26760292 100.58230877 C39.37933945 100.57212948 34.49146252 100.5804122 29.60324465 100.60317173 C27.83795513 100.60815987 26.07263081 100.6064499 24.30735828 100.59723905 C11.71353048 100.5367117 1.39127681 101.56423463 -8.59416199 109.95117283 C-10.15275574 111.12304783 -10.15275574 111.12304783 -12.15275574 111.12304783 C-12.57234558 111.9970322 -12.57234558 111.9970322 -13.00041199 112.88867283 C-14.08451286 114.99072605 -15.28420346 116.90379767 -16.59025574 118.87304783 C-22.16959168 127.76048561 -23.27028436 136.45139818 -23.29142094 146.83851719 C-23.29426315 147.575437 -23.29710537 148.31235681 -23.30003372 149.07160753 C-23.30832704 151.53025345 -23.30964468 153.98885192 -23.31097412 156.44751072 C-23.31554313 158.23220524 -23.32054365 160.0168987 -23.32593769 161.80159092 C-23.3394896 166.69759211 -23.34692861 171.59358637 -23.35336435 176.48960137 C-23.36138125 181.77240861 -23.37507458 187.0552015 -23.38807678 192.33799839 C-23.40982122 201.48810469 -23.42797314 210.63821246 -23.44368172 219.78833103 C-23.46639885 233.01785059 -23.49453913 246.24735424 -23.52400099 259.47686028 C-23.5716543 280.94110978 -23.61492461 302.40536579 -23.65544128 323.86962986 C-23.69480772 344.71956991 -23.7362367 365.56950417 -23.78044128 386.41943455 C-23.78316556 387.70472785 -23.78588983 388.99002116 -23.78869665 390.31426275 C-23.80237632 396.76223246 -23.81609656 403.21020208 -23.82983696 409.65817165 C-23.94376621 463.14645237 -24.04977645 516.63474469 -24.15275574 570.12304783 C-57.15275574 570.12304783 -90.15275574 570.12304783 -124.15275574 570.12304783 C-124.21894678 513.2805557 -124.27431826 456.43810005 -124.30595173 399.59558039 C-124.30969344 392.87809225 -124.31358314 386.1606042 -124.31755066 379.44311619 C-124.31794294 378.77467776 -124.31833521 378.10623933 -124.31873938 377.41754519 C-124.33150266 355.78700549 -124.354021 334.15648943 -124.3816474 312.52596403 C-124.41081253 289.64887979 -124.42875758 266.77180592 -124.43502122 243.89470309 C-124.4391285 230.20291933 -124.45208042 216.51120352 -124.47650514 202.81944069 C-124.49241688 193.41839981 -124.49714383 184.01739384 -124.49325987 174.6163405 C-124.49134677 169.20015471 -124.49418785 163.78408729 -124.51037216 158.36792278 C-124.52512326 153.39467522 -124.52561101 148.42162403 -124.51545242 143.44836684 C-124.51419954 141.66334424 -124.51787517 139.87830865 -124.52740528 138.09331105 C-124.60892973 121.85994171 -123.62899773 104.90050655 -118.09025574 89.49804783 C-117.64625427 88.22103001 -117.64625427 88.22103001 -117.19328308 86.91821384 C-110.38042889 68.13340829 -99.81712014 52.59962969 -86.15275574 38.12304783 C-85.45666199 37.36250095 -84.76056824 36.60195408 -84.04338074 35.81836033 C-63.19594158 13.82963801 -30.20488016 -0.1109184 0 0 Z " fill="#000000" transform="translate(1635.1527557373047,241.87695217132568)"/>
<path d="M0 0 C0 188.43 0 376.86 0 571 C-33 571 -66 571 -100 571 C-100.13247683 475.16422519 -100.13247683 475.16422519 -100.16937256 427.81408691 C-100.16992479 427.10719784 -100.17047702 426.40030877 -100.17104598 425.67199882 C-100.18301882 410.30778759 -100.19409938 394.94357584 -100.20426132 379.57936332 C-100.20925047 372.04428246 -100.21443672 364.50920174 -100.21972656 356.97412109 C-100.2202496 356.22430736 -100.22077263 355.47449363 -100.22131152 354.70195828 C-100.23834367 330.41736463 -100.268379 306.13280833 -100.30518888 281.84823728 C-100.34296065 256.88362112 -100.36755137 231.9190256 -100.37565996 206.95438134 C-100.37681251 203.42478262 -100.37811505 199.89518396 -100.37950897 196.36558533 C-100.37977866 195.6709394 -100.38004836 194.97629348 -100.38032622 194.26059768 C-100.38504509 183.09829132 -100.40357567 171.93604897 -100.42732814 160.77376866 C-100.45093582 149.54004082 -100.45953445 138.30637489 -100.45400551 127.07261705 C-100.45144666 120.99071111 -100.45533566 114.90899238 -100.4768219 108.82711983 C-100.49637526 103.25147605 -100.49721306 97.67614428 -100.48359558 92.10048574 C-100.48191407 90.0907868 -100.48691333 88.08106788 -100.49953273 86.07140785 C-100.58764731 71.16379426 -99.43571634 56.96424471 -92.1875 43.5625 C-91.84058105 42.89911621 -91.49366211 42.23573242 -91.13623047 41.55224609 C-88.28087135 36.2311912 -85.07586762 31.47248414 -81 27 C-80.28457031 26.19304687 -79.56914063 25.38609375 -78.83203125 24.5546875 C-65.06044569 9.86200078 -46.91571237 1.24797714 -26.71875 0.5859375 C-23.64607539 0.50020613 -20.57324386 0.4363116 -17.5 0.375 C-15.91143869 0.33674485 -14.32289644 0.29768896 -12.734375 0.2578125 C-2.24749291 0 -2.24749291 0 0 0 Z " fill="#000000" transform="translate(826,241)"/>
<path d="M0 0 C1.61703903 0.00056958 1.61703903 0.00056958 3.26674551 0.00115067 C5.12464022 -0.00183591 5.12464022 -0.00183591 7.02006817 -0.00488281 C8.41236512 -0.00202922 9.80466189 0.00091639 11.19695848 0.00394398 C12.66212586 0.00350841 14.12729316 0.00263376 15.59246004 0.00135481 C19.63776924 -0.00089289 23.68305223 0.00313488 27.72835809 0.00813287 C32.08352777 0.01243326 36.43869585 0.01099125 40.79386705 0.0102306 C48.34585289 0.0097051 55.89783011 0.01285459 63.44981378 0.01846844 C74.36884518 0.02657996 85.2878724 0.0291983 96.20690649 0.03045643 C113.92038464 0.0326475 131.63385819 0.03930907 149.34733385 0.04875904 C166.55892216 0.05793175 183.77050922 0.06501327 200.98209947 0.06926686 C202.04222018 0.06952958 203.10234089 0.0697923 204.19458646 0.07006299 C209.51266112 0.07136798 214.83073578 0.0726317 220.14881045 0.07387489 C264.29905475 0.08424921 308.44929056 0.10268843 352.59953111 0.1241985 C352.59953111 32.7941985 352.59953111 65.4641985 352.59953111 99.1241985 C341.19022045 99.72468853 329.96034763 100.27149536 318.56556505 100.25118214 C317.16394636 100.25233935 315.76232797 100.25393085 314.3607102 100.25590938 C310.57463116 100.26001945 306.78857785 100.25805057 303.00249881 100.25492316 C298.89507077 100.25263513 294.78764678 100.25616515 290.68021959 100.25890309 C282.66467151 100.26332159 274.64913286 100.26240251 266.63358442 100.25949045 C260.12327141 100.25722375 253.61296102 100.25692935 247.10264772 100.25801426 C246.17298938 100.25816749 245.24333103 100.25832073 244.28550122 100.2584786 C242.3966241 100.25879835 240.50774698 100.25912256 238.61886986 100.2594512 C220.96417459 100.26229374 203.30948453 100.25903675 185.65479012 100.25365083 C170.49850978 100.24917057 155.3422371 100.24997111 140.1859569 100.25456959 C122.56262204 100.25991411 104.93929173 100.26203315 87.31595618 100.25895733 C85.43988103 100.25863878 83.56380588 100.25832441 81.68773073 100.25801426 C80.76473516 100.25785999 79.84173959 100.25770571 78.89077445 100.25754676 C72.37729895 100.25668223 65.86382633 100.25814283 59.35035127 100.26049381 C51.42997446 100.26329004 43.50960756 100.26255676 35.58923189 100.25721307 C31.54653845 100.25457571 27.50386157 100.25357177 23.46116823 100.25686222 C19.76718465 100.25982364 16.07323314 100.25823506 12.37925251 100.25288467 C10.39756804 100.25122386 8.41588137 100.25451904 6.43419915 100.2579419 C5.27350447 100.25533415 4.11280979 100.25272641 2.91694254 100.25003964 C1.90693339 100.24987728 0.89692424 100.24971493 -0.14369124 100.24954766 C-2.40046889 100.1241985 -2.40046889 100.1241985 -3.40046889 99.1241985 C-3.50111087 96.08554089 -3.53661478 93.0695712 -3.52986342 90.0304485 C-3.53161574 89.07605885 -3.53336806 88.1216692 -3.53517348 87.13835865 C-3.53959375 83.96695372 -3.53665338 80.79560405 -3.53328139 77.6241985 C-3.53395437 75.43083901 -3.53492436 73.2374796 -3.53618056 71.04412037 C-3.53765777 66.44059754 -3.53550223 61.83709408 -3.53083998 57.2335735 C-3.52514268 51.31815255 -3.52842156 45.40277696 -3.53441244 39.48735768 C-3.53801743 34.95622624 -3.53687976 30.42510564 -3.53428465 25.89397389 C-3.53361521 23.71217045 -3.5344444 21.53036604 -3.5367642 19.34856373 C-3.5392897 16.3049986 -3.53545158 13.26150804 -3.52986342 10.2179485 C-3.53188765 9.30674244 -3.53391188 8.39553639 -3.53599745 7.45671803 C-3.51111696 0.18166261 -3.51111696 0.18166261 0 0 Z " fill="#000000" transform="translate(1618.4004688858986,475.8758015036583)"/>
</svg>
